# xmcd
#
# Track frame offsets:
#	150
#	18973
#	38541
#	58139
#	75110
#	95246
#	113284
#	124872
#	136603
#	150610
#	167907
#
# Disc length: 2441 seconds
#
# Revision: 1
# Processed by: cddbd v1.5.2PL0 Copyright (c) Steve Scherf et al.
# Submitted via: audiograbber 1.83.01
#
DISCID=7809870b
DTITLE=Fragment - Waiting For Summer
DYEAR=1900
DGENRE=Bluegrass
TTITLE0=Home From the Forest
TTITLE1=Wayfaring Stranger
TTITLE2=Far Far Away
TTITLE3=Last Thing On My Mind
TTITLE4=Castle Party
TTITLE5=Waiting For Summer
TTITLE6=Never More
TTITLE7=More Than Friends
TTITLE8=Stupava's Hat
TTITLE9=Sunny Side Of The Mountain
TTITLE10=The Water Is Wide
EXTD=
EXTT0=
EXTT1=
EXTT2=
EXTT3=
EXTT4=
EXTT5=
EXTT6=
EXTT7=
EXTT8=
EXTT9=
EXTT10=
PLAYORDER=
